<svg xmlns="http://www.w3.org/2000/svg" xmlns:xlink="http://www.w3.org/1999/xlink" width="32" height="32" viewBox="0 0 32 32">
    <defs>
        <path id="a" d="M21.747 6.397l-.242.596c-1.811-.734-2.673-1.996-2.478-3.695l.994.114c-.133 1.154.378 1.98 1.622 2.552a44.54 44.54 0 0 0-.84-3.012h-9.908c-.259 1.046-.501 2.084-.728 3.114l.376.927c1.812-.734 2.674-1.996 2.478-3.695l-.994.114c.141 1.225-.443 2.08-1.86 2.654C8.388 14.141 7.57 21.698 7.71 28.74h1.55a759.219 759.219 0 0 0 6.253-18.049.726.726 0 0 1 1.39.045c2.455 9.308 4.279 15.42 5.461 18.313h1.491c-.024-9.212-.728-16.764-2.107-22.65zM10.079 29.41l-.12.33H6.734l-.013-.487c-.216-8.277.884-17.251 3.298-26.923l.095-.378h11.414l.114.343c2.145 6.507 3.214 15.589 3.214 27.253v.5H21.7l-.13-.303c-1.166-2.73-2.963-8.677-5.4-17.869a746.667 746.667 0 0 1-6.09 17.534zm5.647-26.33h1v4.194h-1V3.081zM6.742 8.407l-.042.23c-.034.188-.072.406-.114.652l-.89-.152a74.64 74.64 0 0 1 .158-.897l.888.167zm-.304 1.769l-.14.888-.892-.136c.047-.306.093-.605.14-.896l.892.144zm-.271 1.779c-.043.295-.084.592-.124.89l-.896-.12c.041-.302.083-.601.126-.9l.894.13zm-.24 1.78c-.038.3-.074.597-.108.893l-.897-.104c.034-.299.07-.599.108-.9l.896.112zM5.72 15.52c-.031.301-.06.6-.088.894l-.9-.084c.028-.298.058-.6.09-.904l.898.094zm-.165 1.788c-.024.303-.046.6-.064.894l-.902-.058c.02-.298.041-.6.066-.908l.9.072zm-.114 1.788c-.015.305-.026.603-.033.894l-.903-.024c.008-.297.019-.601.033-.912l.903.042zm-.046 1.788c0 .307.003.603.012.889l-.903.026a29.729 29.729 0 0 1-.012-.917l.903.002zm.055 1.774c.021.308.05.6.083.875l-.896.112c-.036-.292-.066-.6-.088-.924l.9-.063zM24.814 8.406l.888-.167.043.236c.035.191.074.412.116.66l-.89.153a73.742 73.742 0 0 0-.157-.882zm.304 1.769l.892-.144c.047.291.094.59.14.896l-.893.136c-.046-.303-.092-.6-.139-.888zm.271 1.779l.895-.13.125.9-.895.12c-.04-.298-.082-.595-.125-.89zm.24 1.78l.897-.112c.038.302.074.602.109.901l-.898.104c-.034-.296-.07-.593-.107-.892zm.207 1.786l.898-.094c.032.305.062.606.09.904l-.9.084a75.894 75.894 0 0 0-.088-.894zM26 17.308l.9-.072c.025.308.047.61.066.908l-.901.058c-.02-.293-.04-.591-.065-.894zm.115 1.788l.902-.042c.014.311.026.615.033.912l-.903.024c-.007-.29-.018-.589-.032-.894zm.045 1.788l.903-.002c0 .316-.003.622-.012.917l-.903-.026c.009-.286.013-.582.012-.89zm-.055 1.774l.901.063c-.022.324-.052.632-.088.924l-.896-.112c.034-.275.062-.567.083-.875z"/>
    </defs>
    <g fill="none" fill-rule="evenodd">
        <mask id="b" fill="#fff">
            <use xlink:href="#a"/>
        </mask>
        <use fill="#34454E" fill-rule="nonzero" xlink:href="#a"/>
        <g fill="#34454E" mask="url(#b)">
            <path d="M0 0h32v32H0z"/>
        </g>
    </g>
</svg>
