<svg xmlns="http://www.w3.org/2000/svg" xmlns:xlink="http://www.w3.org/1999/xlink" width="32" height="32" viewBox="0 0 32 32">
    <defs>
        <path id="a" d="M15.894 2.894h-5.298l-.502 2.559c1.144-.49 1.608-1.2 1.491-2.213l.994-.114c.174 1.514-.596 2.642-2.203 3.293l-.318-.784-3.726 19.002 3.918.837 5.47-16.329a.697.697 0 0 1 1.33.028l4.712 16.297 3.922-.837-3.107-19.078-.35.864c-1.607-.651-2.377-1.779-2.203-3.293l.994.114c-.119 1.029.362 1.745 1.547 2.236l-.42-2.582h-5.25V6.67h-1V2.894zm-4.98 23.745l-5.753-1.23L9.773 1.894h13.222l3.829 23.518-5.764 1.23-4.7-16.259-5.445 16.256zM8.107 30v-.789h.789V30h-.79zm1.577 0v-.789h.79V30h-.79zm1.578 0v-.789h.789V30h-.79zm1.577 0v-.789h.789V30h-.789zm1.578 0v-.789h.788V30h-.788zm1.577 0v-.789h.789V30h-.789zm1.578 0v-.789h.788V30h-.788zm1.577 0v-.789h.789V30h-.789zm1.578 0v-.789h.788V30h-.788zm1.577 0v-.789h.789V30h-.789zm1.578 0v-.789h.006V30h-.006z"/>
    </defs>
    <g fill="none" fill-rule="evenodd">
        <mask id="b" fill="#fff">
            <use xlink:href="#a"/>
        </mask>
        <use fill="#34454E" fill-rule="nonzero" xlink:href="#a"/>
        <g fill="#34454E" mask="url(#b)">
            <path d="M0 0h32v32H0z"/>
        </g>
    </g>
</svg>
