<svg xmlns="http://www.w3.org/2000/svg" xmlns:xlink="http://www.w3.org/1999/xlink" width="32" height="32" viewBox="0 0 32 32">
    <defs>
        <path id="a" d="M20.519 6.96l-.014.033c-1.811-.734-2.673-1.996-2.478-3.695l.994.114c-.122 1.06.299 1.843 1.333 2.407l-.413-2.867h-9.698L9.7 5.976c1.264-.573 1.783-1.402 1.649-2.564l.993-.114c.196 1.7-.666 2.96-2.478 3.695l-.24-.592-3.893 21.755 2.56.773 6.103-18.277a.726.726 0 0 1 1.385.024l5.387 18.242 2.407-.76L20.519 6.96zm-5.452 4.835L8.932 30.167l-4.341-1.31L9.406 1.951h11.401l3.877 26.903-4.188 1.324-5.429-18.384zm-.47-8.714h1v4.193h-1V3.081zm-8.33 4.394l.884.184-.184.884-.884-.183.183-.885zm-.368 1.77l.884.183-.183.884-.885-.184.184-.884zm-.367 1.768l.884.183-.183.885-.885-.184.184-.884zm-.367 1.769l.884.183-.184.885-.884-.184.184-.884zm-.368 1.768l.885.184-.184.884-.884-.183.183-.885zM4.43 16.32l.884.184-.183.884-.885-.184.184-.884zm-.367 1.769l.884.183-.183.885-.885-.184.184-.884zm-.367 1.768l.884.184-.184.884-.884-.183.184-.885zm-.368 1.77l.885.183-.184.884-.884-.183.183-.885zm19.57-14.244l.893-.136.136.893-.893.136-.136-.893zm.271 1.786l.893-.136.136.893-.893.136-.136-.893zm.271 1.786l.893-.136.136.893-.893.136-.136-.893zm.271 1.786l.893-.136.136.893-.893.136-.136-.893zm.271 1.786l.893-.136.136.893-.893.136-.136-.893zm.271 1.786l.893-.136.136.893-.893.136-.136-.893zm.271 1.786l.893-.136.136.893-.893.136-.136-.893zm.271 1.786l.893-.136.136.893-.893.136-.136-.893zm.272 1.786l.893-.136.135.893-.893.136-.135-.893z"/>
    </defs>
    <g fill="none" fill-rule="evenodd">
        <mask id="b" fill="#fff">
            <use xlink:href="#a"/>
        </mask>
        <use fill="#34454E" fill-rule="nonzero" xlink:href="#a"/>
        <g fill="#34454E" mask="url(#b)">
            <path d="M0 0h32v32H0z"/>
        </g>
    </g>
</svg>
