<svg xmlns="http://www.w3.org/2000/svg" xmlns:xlink="http://www.w3.org/1999/xlink" width="32" height="32" viewBox="0 0 32 32">
    <defs>
        <path id="a" d="M10.096 6.304L7.968 28.987h4.701l2.696-17.276a.726.726 0 0 1 1.438.032l1.91 17.244h4.883L21.943 2.952H10.41l-.287 3.063C11.45 5.44 11.997 4.6 11.86 3.412l.994-.114c.195 1.7-.667 2.96-2.478 3.695l-.28-.689zm3.429 23.683H6.87L9.5 1.952h13.381l1.78 28.035h-6.843l-1.782-16.09-2.511 16.09zm7.98-22.994c-1.811-.734-2.673-1.996-2.478-3.695l.994.114c-.141 1.225.443 2.08 1.86 2.654l-.376.927zm-5.78-3.912h1v4.193h-1V3.081zm-8.755.23l.899.087-.087.9-.9-.088.088-.899zM6.796 5.11l.899.087-.087.9-.9-.088.088-.899zm-.174 1.798l.899.087-.087.9-.9-.088.088-.899zm-.174 1.798l.899.087-.087.9-.9-.087.088-.9zm-.174 1.799l.899.087-.087.899-.9-.087.088-.9zM6.1 12.302l.899.087-.087.899-.9-.087.088-.9zM5.926 14.1l.899.087-.087.899-.9-.087.088-.9zm-.174 1.798l.899.087-.087.899-.9-.087.088-.9zm18.38-12.5l.898-.087.087.9-.899.086-.087-.899zm.173 1.798l.9-.087.086.9-.899.086-.087-.899zm.174 1.798l.9-.087.086.9-.899.086-.087-.899zm.174 1.798l.9-.087.086.9-.899.087-.087-.9zm.174 1.799l.9-.087.086.899-.899.087-.087-.9zm.174 1.798l.9-.087.086.899-.899.087-.087-.9zm.174 1.798l.9-.087.086.899-.899.087-.087-.9zm.174 1.798l.9-.087.086.899-.899.087-.087-.9z"/>
    </defs>
    <g fill="none" fill-rule="evenodd">
        <mask id="b" fill="#fff">
            <use xlink:href="#a"/>
        </mask>
        <use fill="#34454E" fill-rule="nonzero" xlink:href="#a"/>
        <g fill="#34454E" mask="url(#b)">
            <path d="M0 0h32v32H0z"/>
        </g>
    </g>
</svg>
