<svg xmlns="http://www.w3.org/2000/svg" xmlns:xlink="http://www.w3.org/1999/xlink" width="32" height="32" viewBox="0 0 32 32">
    <defs>
        <path id="a" d="M23.514 17.632c-.362 2.217-.606 3.819-.696 4.591 0 1.943.14 3.737.371 5.34.081.559.168 1.053.254 1.478.051.252.09.423.112.507l.16.624h-7.758v-.5h-.028v.5H8.172l.16-.624c.02-.084.06-.255.111-.507.087-.425.173-.92.254-1.479.232-1.602.37-3.396.374-5.283-.092-.815-.336-2.427-.698-4.647l-.31.366-4.789-1.15.068-.452a53.91 53.91 0 0 1 .945-4.916c.85-3.445 1.725-5.115 2.37-5.654l.12-.074 4.873-2.14 2.066-1.833.333.334c.65.65 1.28.948 1.894.973.614-.025 1.245-.323 1.894-.973l.333-.334 2.066 1.833 4.874 2.14.12.074c.645.54 1.52 2.209 2.37 5.654a53.91 53.91 0 0 1 .944 4.916l.068.453-4.789 1.149-.31-.366zm.213-1.295l.461.545 3.298-.791a51.462 51.462 0 0 0-.857-4.372c-.474-1.917-.977-3.31-1.474-4.258-.243-.463-.426-.721-.526-.828l-4.404-1.934-1.719 4.056-2.054-2.84v23.257h5.997c-.085-.427-.17-.918-.25-1.466a38.237 38.237 0 0 1-.377-5.539c.123-1.092.505-3.529 1.072-6.919l.09-.529a982.837 982.837 0 0 1 1.199-6.974l.985.173a574.609 574.609 0 0 0-.375 2.147 981.87 981.87 0 0 0-.824 4.82l-.088.528-.154.924zM15.452 5.893l-2.07 2.862-1.72-4.056-4.405 1.934c-.1.107-.283.365-.526.828-.497.948-1 2.34-1.473 4.258a51.462 51.462 0 0 0-.858 4.372l3.298.79.462-.544-.154-.924-.09-.531A974.603 974.603 0 0 0 6.72 7.918l.984-.173a570.597 570.597 0 0 1 .375 2.148c.281 1.621.563 3.263.825 4.823l.09.532c.567 3.39.949 5.827 1.075 6.975 0 1.993-.143 3.835-.381 5.483-.08.548-.165 1.039-.25 1.466h6.015V5.892zm0-1.706v-.154c-.6-.113-1.19-.407-1.763-.893l-1.165 1.033 1.086 2.56 1.842-2.546zm.484-.617h.014l-.007-.193-.007.193zm.516.46v.18l1.825 2.523 1.085-2.56-1.165-1.033c-.566.482-1.152.774-1.745.89zm8.341 14.816a36.893 36.893 0 0 0-.124 1.962l-1-.035a37.889 37.889 0 0 1 .13-2.03l.994.103zm-.141 3.935c.014.685.05 1.341.113 1.957l-.995.1a25.928 25.928 0 0 1-.118-2.036l1-.021zm.423 3.874c.16.67.367 1.224.617 1.648l-.862.508c-.306-.519-.545-1.164-.728-1.922l.973-.234zM7.269 18.846l.995-.102a37.889 37.889 0 0 1 .129 2.03l-1 .035a36.893 36.893 0 0 0-.124-1.963zm.142 3.935l1 .021c-.016.71-.054 1.392-.118 2.036l-.995-.1a24.94 24.94 0 0 0 .113-1.957zm-.423 3.874l.972.234c-.183.758-.422 1.403-.728 1.922l-.861-.508c.25-.424.456-.979.617-1.648z"/>
    </defs>
    <g fill="none" fill-rule="evenodd">
        <mask id="b" fill="#fff">
            <use xlink:href="#a"/>
        </mask>
        <use fill="#34454E" fill-rule="nonzero" xlink:href="#a"/>
        <g fill="#34454E" mask="url(#b)">
            <path d="M0 0h32v32H0z"/>
        </g>
    </g>
</svg>
