<svg xmlns="http://www.w3.org/2000/svg" xmlns:xlink="http://www.w3.org/1999/xlink" width="32" height="32" viewBox="0 0 32 32">
    <defs>
        <path id="a" d="M8.339 15.863c-.035-2.696-.333-4.756-.805-6.263a7.131 7.131 0 0 0-.532-1.3 2.06 2.06 0 0 0-.195-.308l.746-.666c.257.288.603.915.935 1.975.536 1.708.854 4.042.854 7.122l-.066 1.553v10.908h6.081V5.763l-2.041 2.82-1.71-4.035L7.227 6.47c-.1.107-.282.363-.523.824-.495.944-.996 2.33-1.467 4.24-.31 1.257-.596 2.7-.852 4.34l3.277.786.676-.797zm-.041 1.594l-.27.318-4.768-1.143.068-.454c.278-1.858.593-3.48.94-4.883.846-3.432 1.717-5.094 2.36-5.632l.12-.074 4.847-2.129 2.055-1.823.333.333c1.21 1.209 2.323 1.209 3.371.497.267-.181.458-.36.55-.469l.352-.41 2.005 2.006 4.925 1.99.102.055c1.01.72 1.832 2.579 2.563 5.295a48.21 48.21 0 0 1 .818 3.652 53.51 53.51 0 0 1 .283 1.662l.069.477-5.27.973-.003.092.065 12.094H8.276v-11.93l.022-.497zM22.81 16.15l-.006-.01.006-.004c.006-4.26.364-6.66 1.022-7.951.132-.26.274-.473.436-.667.091-.11.34-.372.332-.364l.746.666c-.01.013-.243.258-.31.339a2.47 2.47 0 0 0-.313.48c-.556 1.093-.892 3.282-.912 7.242l.413.714 3.664-.677a52.697 52.697 0 0 0-.202-1.148 47.238 47.238 0 0 0-.8-3.575c-.656-2.433-1.402-4.141-2.134-4.707l-4.514-1.824-1.744 3.886-2.137-2.836v23.171h6.45l-.059-11.111.062-1.544v-.08zM16.357 3.925v.125l1.917 2.546 1.108-2.467-1.105-1.106c-.106.088-.226.18-.361.272-.496.336-1.02.555-1.559.63zm-1-.031c-.574-.116-1.157-.405-1.734-.896l-1.154 1.024 1.076 2.54 1.812-2.505v-.163z"/>
    </defs>
    <g fill="none" fill-rule="evenodd">
        <mask id="b" fill="#fff">
            <use xlink:href="#a"/>
        </mask>
        <use fill="#34454E" fill-rule="nonzero" xlink:href="#a"/>
        <g fill="#34454E" mask="url(#b)">
            <path d="M0 0h32v32H0z"/>
        </g>
    </g>
</svg>
